<svg width="166" height="93" viewBox="0 0 166 93" fill="none" xmlns="http://www.w3.org/2000/svg">
<path d="M47.504 17.656C38.2027 17.656 31.4613 20.2587 27.28 25.464C23.184 30.584 21.136 37.624 21.136 46.584C21.136 50.936 21.648 54.904 22.672 58.488C23.696 61.9867 25.232 65.016 27.28 67.576C29.328 70.136 31.888 72.1413 34.96 73.592C38.032 74.9573 41.616 75.64 45.712 75.64C47.9307 75.64 49.808 75.5973 51.344 75.512C52.9653 75.4267 54.3733 75.256 55.568 75V44.152H75.536V88.056C73.1467 88.9947 69.3067 89.976 64.016 91C58.7253 92.1093 52.1973 92.664 44.432 92.664C37.776 92.664 31.7173 91.64 26.256 89.592C20.88 87.544 16.272 84.5573 12.432 80.632C8.592 76.7067 5.60533 71.8853 3.472 66.168C1.424 60.4507 0.4 53.9227 0.4 46.584C0.4 39.16 1.552 32.5893 3.856 26.872C6.16 21.1547 9.31733 16.3333 13.328 12.408C17.3387 8.39733 22.032 5.368 27.408 3.31999C32.8693 1.27199 38.672 0.247993 44.816 0.247993C48.9973 0.247993 52.752 0.546661 56.08 1.144C59.4933 1.656 62.3947 2.296 64.784 3.064C67.2587 3.74666 69.264 4.472 70.8 5.24C72.4213 6.008 73.5733 6.60533 74.256 7.032L68.496 23.032C65.7653 21.5813 62.608 20.344 59.024 19.32C55.5253 18.2107 51.6853 17.656 47.504 17.656ZM116.131 91C116.643 84.7707 117.71 78.2853 119.331 71.544C120.952 64.8027 122.915 58.1893 125.219 51.704C127.608 45.2187 130.254 39.1173 133.155 33.4C136.056 27.5973 139 22.6053 141.987 18.424H103.459V2.168H165.539V15.992C162.808 18.9787 159.779 23.1173 156.451 28.408C153.208 33.6987 150.094 39.7147 147.107 46.456C144.206 53.112 141.646 60.28 139.427 67.96C137.294 75.64 135.971 83.32 135.459 91H116.131Z" fill="black"/>
<path d="M27.28 25.464L24.9411 23.5852L24.9374 23.5899L27.28 25.464ZM22.672 58.488L19.7874 59.3122L19.7901 59.3214L19.7928 59.3307L22.672 58.488ZM27.28 67.576L29.6226 65.7019L27.28 67.576ZM34.96 73.592L33.679 76.3047L33.7101 76.3195L33.7416 76.3334L34.96 73.592ZM51.344 75.512L51.1863 72.5161L51.1776 72.5166L51.344 75.512ZM55.568 75L56.1966 77.9334L58.568 77.4252V75H55.568ZM55.568 44.152V41.152H52.568V44.152H55.568ZM75.536 44.152H78.536V41.152H75.536V44.152ZM75.536 88.056L76.633 90.8483L78.536 90.1006V88.056H75.536ZM64.016 91L63.4459 88.0547L63.4231 88.0591L63.4004 88.0639L64.016 91ZM26.256 89.592L25.188 92.3955L25.1953 92.3982L25.2026 92.401L26.256 89.592ZM12.432 80.632L10.2875 82.7299L12.432 80.632ZM3.472 66.168L0.647729 67.1797L0.654389 67.1983L0.661293 67.2168L3.472 66.168ZM3.856 26.872L1.07344 25.7507H1.07344L3.856 26.872ZM13.328 12.408L15.4264 14.552L15.4379 14.5407L15.4493 14.5293L13.328 12.408ZM27.408 3.31999L26.3546 0.511003L26.3473 0.513748L26.34 0.516529L27.408 3.31999ZM56.08 1.144L55.55 4.09681L55.5924 4.10442L55.635 4.11081L56.08 1.144ZM64.784 3.064L63.866 5.92008L63.9257 5.93929L63.9862 5.95597L64.784 3.064ZM70.8 5.24L69.4584 7.92328L69.4869 7.93755L69.5157 7.95121L70.8 5.24ZM74.256 7.032L77.0787 8.04816L77.8985 5.77082L75.846 4.488L74.256 7.032ZM68.496 23.032L67.0885 25.6813L70.146 27.3056L71.3187 24.0482L68.496 23.032ZM59.024 19.32L58.1173 22.1797L58.1584 22.1927L58.1998 22.2046L59.024 19.32ZM47.504 14.656C37.6702 14.656 29.8921 17.4218 24.9411 23.5852L29.6189 27.3428C33.0306 23.0955 38.7351 20.656 47.504 20.656V14.656ZM24.9374 23.5899C20.2833 29.4075 18.136 37.1905 18.136 46.584H24.136C24.136 38.0575 26.0847 31.7605 29.6226 27.3381L24.9374 23.5899ZM18.136 46.584C18.136 51.1693 18.6753 55.4197 19.7874 59.3122L25.5566 57.6638C24.6207 54.3883 24.136 50.7027 24.136 46.584H18.136ZM19.7928 59.3307C20.9144 63.1628 22.619 66.5521 24.9374 69.4501L29.6226 65.7019C27.845 63.4799 26.4776 60.8105 25.5512 57.6453L19.7928 59.3307ZM24.9374 69.4501C27.2813 72.3799 30.2093 74.6663 33.679 76.3047L36.241 70.8792C33.5667 69.6164 31.3747 67.8921 29.6226 65.7019L24.9374 69.4501ZM33.7416 76.3334C37.2714 77.9022 41.2859 78.64 45.712 78.64V72.64C41.9461 72.64 38.7926 72.0124 36.1784 70.8506L33.7416 76.3334ZM45.712 78.64C47.9642 78.64 49.9007 78.5968 51.5104 78.5074L51.1776 72.5166C49.7153 72.5979 47.8971 72.64 45.712 72.64V78.64ZM51.5017 78.5079C53.2333 78.4167 54.806 78.2314 56.1966 77.9334L54.9394 72.0666C53.9407 72.2806 52.6974 72.4366 51.1863 72.5161L51.5017 78.5079ZM58.568 75V44.152H52.568V75H58.568ZM55.568 47.152H75.536V41.152H55.568V47.152ZM72.536 44.152V88.056H78.536V44.152H72.536ZM74.439 85.2637C72.3204 86.0961 68.7078 87.0362 63.4459 88.0547L64.5861 93.9453C69.9055 92.9158 73.9729 91.8933 76.633 90.8483L74.439 85.2637ZM63.4004 88.0639C58.3787 89.1168 52.0719 89.664 44.432 89.664V95.664C52.3228 95.664 59.072 95.1019 64.6317 93.9361L63.4004 88.0639ZM44.432 89.664C38.0855 89.664 32.3899 88.6882 27.3094 86.783L25.2026 92.401C31.0448 94.5918 37.4665 95.664 44.432 95.664V89.664ZM27.324 86.7885C22.3339 84.8875 18.0985 82.1344 14.5765 78.5341L10.2875 82.7299C14.4455 86.9803 19.4261 90.2005 25.188 92.3955L27.324 86.7885ZM14.5765 78.5341C11.0604 74.9399 8.28601 70.4881 6.28271 65.1192L0.661293 67.2168C2.92466 73.2826 6.12357 78.4734 10.2875 82.7299L14.5765 78.5341ZM6.29627 65.1563C4.38593 59.8233 3.4 53.6475 3.4 46.584H-2.6C-2.6 54.1978 -1.53793 61.078 0.647729 67.1797L6.29627 65.1563ZM3.4 46.584C3.4 39.4676 4.50429 33.2895 6.63856 27.9933L1.07344 25.7507C-1.40029 31.8892 -2.6 38.8524 -2.6 46.584H3.4ZM6.63856 27.9933C8.80297 22.6224 11.74 18.16 15.4264 14.552L11.2296 10.264C6.89466 14.5067 3.51703 19.6869 1.07344 25.7507L6.63856 27.9933ZM15.4493 14.5293C19.1565 10.8221 23.4895 8.02309 28.476 6.12346L26.34 0.516529C20.5746 2.7129 15.5208 5.97255 11.2067 10.2867L15.4493 14.5293ZM28.4614 6.12898C33.5682 4.21393 39.0123 3.24799 44.816 3.24799V-2.75201C38.3317 -2.75201 32.1705 -1.66995 26.3546 0.511003L28.4614 6.12898ZM44.816 3.24799C48.8595 3.24799 52.4322 3.5372 55.55 4.09681L56.61 -1.80882C53.0718 -2.44388 49.1352 -2.75201 44.816 -2.75201V3.24799ZM55.635 4.11081C58.9429 4.60699 61.6762 5.21623 63.866 5.92008L65.702 0.207911C63.1131 -0.624239 60.0438 -1.295 56.525 -1.82281L55.635 4.11081ZM63.9862 5.95597C66.3556 6.60961 68.1591 7.27364 69.4584 7.92328L72.1416 2.55672C70.3689 1.67035 68.1617 0.88372 65.5818 0.172018L63.9862 5.95597ZM69.5157 7.95121C71.1274 8.71463 72.1428 9.249 72.666 9.576L75.846 4.488C75.0039 3.96166 73.7153 3.30137 72.0843 2.52879L69.5157 7.95121ZM71.4333 6.01584L65.6733 22.0158L71.3187 24.0482L77.0787 8.04816L71.4333 6.01584ZM69.9035 20.3827C66.9539 18.8157 63.5946 17.5058 59.8482 16.4354L58.1998 22.2046C61.6214 23.1822 64.5768 24.347 67.0885 25.6813L69.9035 20.3827ZM59.9307 16.4603C56.1012 15.2461 51.9509 14.656 47.504 14.656V20.656C51.4198 20.656 54.9495 21.1753 58.1173 22.1797L59.9307 16.4603ZM116.131 91L113.141 90.7543L112.874 94H116.131V91ZM119.331 71.544L122.248 72.2455L119.331 71.544ZM125.219 51.704L122.404 50.6669L122.398 50.6833L122.392 50.6997L125.219 51.704ZM133.155 33.4L135.83 34.7576L135.834 34.7496L135.838 34.7416L133.155 33.4ZM141.987 18.424L144.428 20.1677L147.817 15.424H141.987V18.424ZM103.459 18.424H100.459V21.424H103.459V18.424ZM103.459 2.168V-0.832001H100.459V2.168H103.459ZM165.539 2.168H168.539V-0.832001H165.539V2.168ZM165.539 15.992L167.753 18.0163L168.539 17.1567V15.992H165.539ZM156.451 28.408L153.912 26.8106L153.902 26.8254L153.893 26.8403L156.451 28.408ZM147.107 46.456L144.364 45.2408L144.361 45.249L144.357 45.2572L147.107 46.456ZM139.427 67.96L136.545 67.1274L136.541 67.1422L136.536 67.1571L139.427 67.96ZM135.459 91V94H138.266L138.452 91.1996L135.459 91ZM119.121 91.2457C119.619 85.1856 120.659 78.853 122.248 72.2455L116.414 70.8425C114.761 77.7176 113.667 84.3558 113.141 90.7543L119.121 91.2457ZM122.248 72.2455C123.845 65.6059 125.777 59.0936 128.046 52.7083L122.392 50.6997C120.053 57.285 118.06 63.9995 116.414 70.8425L122.248 72.2455ZM128.034 52.7411C130.386 46.3568 132.986 40.3632 135.83 34.7576L130.48 32.0424C127.522 37.8714 124.831 44.0805 122.404 50.6669L128.034 52.7411ZM135.838 34.7416C138.687 29.0445 141.553 24.1935 144.428 20.1677L139.546 16.6803C136.448 21.0171 133.426 26.1501 130.472 32.0584L135.838 34.7416ZM141.987 15.424H103.459V21.424H141.987V15.424ZM106.459 18.424V2.168H100.459V18.424H106.459ZM103.459 5.168H165.539V-0.832001H103.459V5.168ZM162.539 2.168V15.992H168.539V2.168H162.539ZM163.325 13.9677C160.427 17.1375 157.29 21.4405 153.912 26.8106L158.99 30.0054C162.268 24.7941 165.19 20.8198 167.753 18.0163L163.325 13.9677ZM153.893 26.8403C150.57 32.263 147.395 38.3999 144.364 45.2408L149.85 47.6712C152.792 41.0295 155.847 35.1344 159.009 29.9757L153.893 26.8403ZM144.357 45.2572C141.399 52.0435 138.796 59.3349 136.545 67.1274L142.309 68.7926C144.495 61.2251 147.013 54.1805 149.857 47.6548L144.357 45.2572ZM136.536 67.1571C134.35 75.0272 132.992 82.9092 132.466 90.8004L138.452 91.1996C138.95 83.7308 140.237 76.2528 142.318 68.7629L136.536 67.1571ZM135.459 88H116.131V94H135.459V88Z" fill="black"/>
</svg>
