<svg width="17" height="17" viewBox="0 0 17 17" fill="none" xmlns="http://www.w3.org/2000/svg">
<path d="M15.8265 7.27815H8.67396V10.2424H12.7901C12.407 12.1261 10.8033 13.2084 8.67396 13.2084C8.07813 13.2094 7.48796 13.0928 6.9373 12.8652C6.38664 12.6376 5.88633 12.3036 5.46505 11.8822C5.04378 11.4609 4.70983 10.9605 4.48236 10.4098C4.2549 9.85911 4.13839 9.26892 4.13952 8.67309C4.1385 8.07734 4.2551 7.48724 4.48261 6.93664C4.71013 6.38604 5.04409 5.88576 5.46536 5.46449C5.88662 5.04323 6.3869 4.70927 6.9375 4.48175C7.4881 4.25423 8.0782 4.13764 8.67396 4.13866C9.75538 4.13866 10.7329 4.52262 11.4999 5.15051L13.7332 2.91808C12.3726 1.73186 10.6281 1.00003 8.67396 1.00003C7.66538 0.997085 6.66616 1.19356 5.73379 1.57817C4.80142 1.96278 3.95428 2.52792 3.2411 3.2411C2.52792 3.95428 1.96278 4.80141 1.57817 5.73379C1.19357 6.66616 0.997087 7.66537 1.00004 8.67395C0.996973 9.68257 1.19337 10.6818 1.57794 11.6143C1.96251 12.5467 2.52765 13.3939 3.24085 14.1071C3.95405 14.8203 4.80123 15.3854 5.73366 15.77C6.66608 16.1545 7.66534 16.3509 8.67396 16.3479C12.5109 16.3479 16 13.5571 16 8.67395C16 8.22042 15.9304 7.73168 15.8265 7.27815Z" stroke="white"/>
</svg>
