<svg width="17" height="17" viewBox="0 0 17 17" fill="none" xmlns="http://www.w3.org/2000/svg">
<path d="M2.80277 4.60554C3.79842 4.60554 4.60554 3.79842 4.60554 2.80277C4.60554 1.80713 3.79842 1 2.80277 1C1.80713 1 1 1.80713 1 2.80277C1 3.79842 1.80713 4.60554 2.80277 4.60554Z" stroke="white"/>
<path d="M6.30817 5.97179V15.9736H9.41359V11.0275C9.41359 9.72235 9.65912 8.45843 11.2773 8.45843C12.8733 8.45843 12.8931 9.95058 12.8931 11.1099V15.9744H16.0001V10.4894C16.0001 7.79516 15.4201 5.72461 12.271 5.72461C10.7591 5.72461 9.74564 6.55431 9.3312 7.33952H9.28917V5.97179H6.30817ZM1.24756 5.97179H4.35792V15.9736H1.24756V5.97179Z" stroke="white"/>
</svg>
