<svg width="383" height="447" viewBox="0 0 383 447" fill="none" xmlns="http://www.w3.org/2000/svg">
<g clip-path="url(#clip0_1118_96)">
<path d="M370.621 164.752H12.0508C8.85588 164.749 5.79284 163.477 3.53367 161.216C1.2745 158.956 0.00368913 155.891 0 152.694V12.0582C0.00368913 8.86133 1.2745 5.79641 3.53367 3.53585C5.79284 1.27529 8.85588 0.00369141 12.0508 0H370.621C373.816 0.00369141 376.879 1.27529 379.138 3.53585C381.397 5.79641 382.668 8.86133 382.672 12.0582V152.694C382.668 155.891 381.397 158.956 379.138 161.216C376.879 163.477 373.816 164.749 370.621 164.752Z" fill="#0CCE8D"/>
<path d="M286.994 157.062H68.9681C52.7211 157.043 37.1448 150.577 25.6564 139.082C14.168 127.586 7.70583 112 7.6875 95.7433V69.0157C7.70581 52.7586 14.168 37.1726 25.6564 25.6771C37.1447 14.1815 52.7211 7.71522 68.9681 7.69678H313.705C329.952 7.71522 345.529 14.1815 357.017 25.6771C368.506 37.1726 374.968 52.7586 374.986 69.0157C374.96 92.3588 365.681 114.738 349.185 131.245C332.689 147.751 310.323 157.035 286.994 157.062Z" fill="#0CCE8D"/>
<path d="M230.753 47.956H86.6348C85.8105 47.956 85.02 47.6283 84.4371 47.0451C83.8543 46.4619 83.5269 45.6709 83.5269 44.8462C83.5269 44.0214 83.8543 43.2304 84.4371 42.6472C85.02 42.064 85.8105 41.7363 86.6348 41.7363H230.753C231.577 41.7363 232.368 42.064 232.95 42.6472C233.533 43.2304 233.861 44.0214 233.861 44.8462C233.861 45.6709 233.533 46.4619 232.95 47.0451C232.368 47.6283 231.577 47.956 230.753 47.956Z" fill="white"/>
<path d="M303.708 81.1362H86.6348C85.8105 81.1362 85.02 80.8085 84.4371 80.2253C83.8543 79.6421 83.5269 78.8511 83.5269 78.0263C83.5269 77.2015 83.8543 76.4106 84.4371 75.8273C85.02 75.2441 85.8105 74.9165 86.6348 74.9165H303.708C304.532 74.9165 305.322 75.2441 305.905 75.8273C306.488 76.4106 306.816 77.2015 306.816 78.0263C306.816 78.8511 306.488 79.6421 305.905 80.2253C305.322 80.8085 304.532 81.1362 303.708 81.1362Z" fill="white"/>
<path d="M303.708 114.316H86.6348C85.8105 114.316 85.02 113.988 84.4371 113.405C83.8543 112.822 83.5269 112.031 83.5269 111.206C83.5269 110.381 83.8543 109.59 84.4371 109.007C85.02 108.424 85.8105 108.096 86.6348 108.096H303.708C304.532 108.096 305.322 108.424 305.905 109.007C306.488 109.59 306.816 110.381 306.816 111.206C306.816 112.031 306.488 112.822 305.905 113.405C305.322 113.988 304.532 114.316 303.708 114.316Z" fill="#95A4BD"/>
<path d="M303.708 114.316H86.6348C85.8105 114.316 85.02 113.988 84.4371 113.405C83.8543 112.822 83.5269 112.031 83.5269 111.206C83.5269 110.381 83.8543 109.59 84.4371 109.007C85.02 108.424 85.8105 108.096 86.6348 108.096H303.708C304.532 108.096 305.322 108.424 305.905 109.007C306.488 109.59 306.816 110.381 306.816 111.206C306.816 112.031 306.488 112.822 305.905 113.405C305.322 113.988 304.532 114.316 303.708 114.316Z" fill="white"/>
<path d="M215.545 84.9443C215.579 85.881 215.818 86.7988 216.246 87.6329C216.673 88.4671 217.278 89.1973 218.018 89.7722C218.758 90.3471 219.615 90.7527 220.528 90.9604C221.442 91.168 222.39 91.1728 223.305 90.9742L235.158 110.43L240.202 99.7192L228.174 82.8857C227.738 81.3688 226.762 80.0644 225.43 79.2196C224.098 78.3748 222.502 78.0484 220.945 78.3022C219.389 78.5559 217.979 79.3722 216.984 80.5964C215.988 81.8206 215.476 83.3676 215.545 84.9443Z" fill="#E87379"/>
<path d="M304.489 140.704L263.643 118.535L250.76 106.44C250.76 106.44 245.159 104.939 247.22 103.117C249.282 101.295 243.407 99.5373 243.407 99.5373L236.491 93.0444L226.663 100.003L229.507 104.414C229.507 104.414 229.312 111.718 233.31 110.313C237.308 108.907 236.309 114.965 236.309 114.965L260.175 151.983L304.489 140.704Z" fill="#5A74FF"/>
<path d="M183.917 119.817C205.951 119.817 223.814 101.944 223.814 79.896C223.814 57.8483 205.951 39.9751 183.917 39.9751C161.883 39.9751 144.021 57.8483 144.021 79.896C144.021 101.944 161.883 119.817 183.917 119.817Z" fill="#2D42BA"/>
<path d="M304.615 431.479H296.32L292.372 399.462H304.615V431.479Z" fill="#E87379"/>
<path d="M308.994 445.861H303.045L301.983 440.241L299.263 445.861H283.485C282.729 445.861 281.992 445.619 281.383 445.171C280.774 444.722 280.324 444.091 280.099 443.368C279.874 442.646 279.885 441.87 280.132 441.155C280.378 440.439 280.847 439.821 281.47 439.392L294.07 430.684V425.002L307.323 425.794L308.994 445.861Z" fill="#5A74FF"/>
<path d="M238.268 431.479H229.973L226.025 399.462H238.268V431.479Z" fill="#E87379"/>
<path d="M242.647 445.861H236.698L235.636 440.241L232.916 445.861H217.138C216.381 445.861 215.645 445.619 215.036 445.171C214.427 444.722 213.977 444.091 213.752 443.368C213.526 442.646 213.538 441.87 213.785 441.155C214.031 440.439 214.5 439.821 215.122 439.392L227.722 430.684V425.002L240.975 425.794L242.647 445.861Z" fill="#5A74FF"/>
<path d="M295.813 189.34H253.943V237.037H295.813V189.34Z" fill="#E87379"/>
<path d="M254.91 212.866L247.824 221.245L235.585 247.027L204.747 320.447L198.225 335.974L203.492 363.423C203.492 363.423 204.344 382.761 204.344 385.927C204.344 392.372 209.732 395.944 209.732 395.944L213.684 416.543L252.011 414.931C252.011 414.931 250.674 392.225 242.646 386.498C234.619 380.77 230.929 350.921 230.929 350.921L226.567 337.677L269.081 287.25L269.355 304.877L269.488 313.409C269.488 313.409 263.262 368.9 270.52 379.669C277.777 390.439 270.668 389.172 270.668 389.172L271.013 411.386L316.426 411.709L306.407 347.752C306.407 347.752 301.32 343.733 304.042 339.692C306.764 335.652 301.404 330.704 301.404 330.704L303.808 280.775C303.808 280.775 301.146 272.15 304.277 271.029C307.408 269.909 304.688 262.492 304.688 262.492L305.153 252.828L295.813 222.857L254.91 212.866Z" fill="#5A74FF"/>
<path d="M296.457 189.341L300.966 175.805L304.187 171.293L305.475 158.402C305.475 123.597 297.717 129.393 297.717 129.393L293.237 117.151L272.624 116.507L259.419 129.075L248.468 132.943L244.18 155.238L252.011 179.028L253.944 191.919C250.257 198.728 250.569 195.507 253.622 200.62L290.016 210.611C302.899 215.122 302.899 203.521 300.316 200.62C297.732 197.72 296.457 189.341 296.457 189.341Z" fill="#5A74FF"/>
<path d="M280.267 112.18C290.821 112.18 299.376 103.619 299.376 93.0595C299.376 82.4995 290.821 73.939 280.267 73.939C269.714 73.939 261.159 82.4995 261.159 93.0595C261.159 103.619 269.714 112.18 280.267 112.18Z" fill="#E87379"/>
<path d="M305.778 118.582C305.958 118.886 306.067 119.227 306.098 119.579C306.128 119.931 306.078 120.285 305.952 120.615C305.827 120.945 305.628 121.243 305.372 121.486C305.115 121.729 304.807 121.91 304.471 122.017C301.907 122.868 300.329 125.35 298.486 127.335C296.651 129.314 293.694 130.957 291.349 129.61C289.011 128.27 288.85 124.847 286.892 122.991C284.985 121.186 281.816 121.405 279.574 122.778L279.507 122.819C279.12 123.072 278.668 123.205 278.206 123.203C277.744 123.201 277.293 123.063 276.908 122.807C276.524 122.551 276.222 122.188 276.042 121.763C275.861 121.338 275.809 120.868 275.892 120.414C276.678 116.234 277.463 112.055 278.247 107.876C276.186 112.846 273.192 117.375 269.429 121.218C268.392 122.415 267.079 123.34 265.603 123.912C264.263 124.338 262.962 122.952 261.66 123.203C264.894 120.374 275.767 102.236 273.822 90.1124C271.535 90.3702 269.249 90.628 266.962 90.8858C266.714 89.803 266.185 88.8047 265.429 87.9919C265.521 89.0457 265.387 90.1072 265.036 91.105C264.082 91.2146 263.123 91.3177 262.169 91.4273C260.842 91.5755 259.399 91.7044 258.259 91.0083C256.359 89.8482 256.301 87.1024 256.842 84.9367C258.427 78.6395 263.232 73.3735 269.113 70.6149C274.994 67.8627 276.734 73.9923 282.93 72.0329C295.169 68.1656 304.548 74.7787 307.852 87.0508C310.629 97.3442 308.612 108.269 305.778 118.582Z" fill="#502A59"/>
<path d="M358.68 446.277H335.281L335.181 446.094C334.882 445.551 334.593 444.976 334.323 444.385C331.913 439.222 330.894 433.317 329.995 428.107L329.318 424.18C329.236 423.704 329.298 423.215 329.496 422.775C329.693 422.335 330.018 421.963 330.427 421.709C330.837 421.454 331.313 421.327 331.795 421.345C332.277 421.363 332.743 421.524 333.133 421.808C336.689 424.397 340.246 426.984 343.805 429.568C345.152 430.549 346.691 431.684 348.165 432.911C348.307 432.22 348.456 431.527 348.605 430.844C348.707 430.372 348.948 429.941 349.297 429.607C349.645 429.273 350.085 429.051 350.561 428.968C351.036 428.886 351.526 428.948 351.966 429.145C352.406 429.343 352.778 429.667 353.033 430.077L355.77 434.479C357.767 437.692 359.529 440.86 359.17 444.275C359.172 444.317 359.169 444.359 359.161 444.399C359.089 444.961 358.956 445.512 358.764 446.044L358.68 446.277Z" fill="#C2C2DD"/>
<path d="M382.165 446.783L159.82 447C159.598 446.999 159.386 446.91 159.229 446.752C159.073 446.595 158.985 446.382 158.985 446.16C158.985 445.938 159.073 445.725 159.229 445.567C159.386 445.41 159.598 445.321 159.82 445.32L382.165 445.103C382.387 445.104 382.599 445.193 382.756 445.351C382.912 445.508 383 445.721 383 445.943C383 446.165 382.912 446.378 382.756 446.536C382.599 446.693 382.387 446.782 382.165 446.783Z" fill="white"/>
<path d="M180.291 133.627L155.834 112.96C154.998 112.252 154.477 111.241 154.385 110.149C154.293 109.057 154.637 107.973 155.343 107.135L159.844 101.802C160.552 100.965 161.562 100.444 162.654 100.352C163.745 100.259 164.828 100.604 165.666 101.311L190.123 121.977C190.959 122.685 191.48 123.696 191.572 124.788C191.664 125.88 191.319 126.964 190.614 127.802L186.112 133.136C185.405 133.972 184.394 134.494 183.303 134.586C182.212 134.678 181.128 134.333 180.291 133.627Z" fill="#5A74FF"/>
<path d="M157.117 107.565C156.737 108.017 156.551 108.601 156.601 109.189C156.65 109.778 156.931 110.323 157.382 110.704L181.839 131.371C182.29 131.751 182.874 131.937 183.462 131.887C184.05 131.838 184.594 131.557 184.976 131.106L189.477 125.772C189.857 125.321 190.043 124.737 189.993 124.148C189.944 123.56 189.663 123.015 189.212 122.633L164.755 101.967C164.304 101.586 163.72 101.401 163.132 101.45C162.544 101.5 162 101.781 161.618 102.232L157.117 107.565Z" fill="#C2C2DD"/>
<path d="M171.475 115.599C171.39 115.718 171.279 115.816 171.15 115.884C171.02 115.952 170.877 115.989 170.731 115.993L166.889 116.081C166.765 116.084 166.642 116.062 166.527 116.018C166.412 115.973 166.307 115.906 166.218 115.821C166.128 115.735 166.057 115.633 166.007 115.52C165.957 115.407 165.93 115.285 165.927 115.162C165.924 115.038 165.946 114.916 165.99 114.8C166.035 114.685 166.102 114.58 166.187 114.491C166.272 114.401 166.374 114.329 166.487 114.28C166.6 114.23 166.722 114.203 166.846 114.2L169.359 114.142L166.884 107.605C166.796 107.372 166.804 107.114 166.907 106.887C167.009 106.659 167.198 106.482 167.431 106.394C167.663 106.306 167.922 106.313 168.149 106.416C168.376 106.518 168.554 106.706 168.642 106.938L171.589 114.719C171.642 114.859 171.661 115.011 171.644 115.16C171.627 115.31 171.574 115.453 171.49 115.578L171.475 115.599Z" fill="#0CCF8D"/>
<path d="M171.967 117.242C172.894 117.378 173.78 117.716 174.562 118.232C175.345 118.747 176.004 119.428 176.495 120.227C176.986 121.025 177.295 121.922 177.402 122.853C177.509 123.784 177.411 124.728 177.114 125.617L195.154 139.522L183.965 143.375L168.549 129.58C167.09 128.982 165.9 127.869 165.205 126.452C164.511 125.035 164.36 123.412 164.782 121.891C165.203 120.371 166.167 119.057 167.492 118.2C168.816 117.343 170.409 117.002 171.967 117.242Z" fill="#E87379"/>
<path d="M265.887 124.117L219.7 152.533C219.7 152.533 201.077 145.638 204.717 142.447C208.356 139.255 196.77 137.097 196.77 137.097L183.971 128.481L176.544 137.118C176.544 137.118 177.897 151.147 180.2 148.717C182.502 146.288 185.944 152.924 185.944 152.924C185.944 152.924 186.961 160.333 193.516 158.469C200.07 156.604 217.659 176.149 217.659 176.149L274.502 154.935L265.887 124.117Z" fill="#5A74FF"/>
<path d="M182.514 95.9097C181.979 95.9097 181.451 95.785 180.972 95.5453C180.493 95.3056 180.077 94.9577 179.755 94.529L171.296 83.2429C171.024 82.8803 170.827 82.4677 170.714 82.0287C170.602 81.5896 170.577 81.1327 170.641 80.6841C170.705 80.2354 170.857 79.8038 171.088 79.4138C171.319 79.0238 171.624 78.6832 171.986 78.4113C172.718 77.8621 173.638 77.6263 174.543 77.7558C174.992 77.8199 175.423 77.9717 175.813 78.2027C176.203 78.4336 176.543 78.7391 176.815 79.1016L182.349 86.4847L196.563 65.1506C197.071 64.389 197.86 63.8603 198.757 63.6808C199.654 63.5013 200.585 63.6857 201.346 64.1934C202.107 64.7012 202.636 65.4907 202.815 66.3882C202.995 67.2858 202.81 68.2179 202.303 68.9795L185.385 94.3728C185.079 94.8321 184.667 95.2112 184.184 95.4784C183.702 95.7457 183.162 95.8932 182.61 95.9087C182.578 95.9092 182.546 95.9097 182.514 95.9097Z" fill="#C2C2DD"/>
</g>
<defs>
<clipPath id="clip0_1118_96">
<rect width="383" height="447" fill="white"/>
</clipPath>
</defs>
</svg>
