<svg width="163" height="27" viewBox="0 0 163 27" fill="none" xmlns="http://www.w3.org/2000/svg">
<path d="M14.0478 5.37208C11.4318 5.37208 9.53581 6.10408 8.35981 7.56808C7.20781 9.00808 6.6318 10.9881 6.6318 13.5081C6.6318 14.7321 6.77581 15.8481 7.06381 16.8561C7.35181 17.8401 7.78381 18.6921 8.35981 19.4121C8.93581 20.1321 9.65581 20.6961 10.5198 21.1041C11.3838 21.4881 12.3918 21.6801 13.5438 21.6801C14.1678 21.6801 14.6958 21.6681 15.1278 21.6441C15.5838 21.6201 15.9798 21.5721 16.3158 21.5001V12.8241H21.9318V25.1721C21.2598 25.4361 20.1798 25.7121 18.6918 26.0001C17.2038 26.3121 15.3678 26.4681 13.1838 26.4681C11.3118 26.4681 9.60781 26.1801 8.07181 25.6041C6.55981 25.0281 5.26381 24.1881 4.1838 23.0841C3.1038 21.9801 2.2638 20.6241 1.6638 19.0161C1.0878 17.4081 0.799805 15.5721 0.799805 13.5081C0.799805 11.4201 1.1238 9.57207 1.7718 7.96407C2.4198 6.35607 3.3078 5.00008 4.4358 3.89608C5.5638 2.76808 6.88381 1.91607 8.3958 1.34007C9.93181 0.764074 11.5638 0.476074 13.2918 0.476074C14.4678 0.476074 15.5238 0.560075 16.4598 0.728075C17.4198 0.872075 18.2358 1.05207 18.9078 1.26807C19.6038 1.46008 20.1678 1.66408 20.5998 1.88008C21.0558 2.09608 21.3798 2.26408 21.5718 2.38408L19.9518 6.88408C19.1838 6.47607 18.2958 6.12808 17.2878 5.84008C16.3038 5.52808 15.2238 5.37208 14.0478 5.37208Z" fill="white"/>
<path d="M33.3491 26.0001C33.4931 24.2481 33.7931 22.4241 34.2491 20.5281C34.7051 18.6321 35.2571 16.7721 35.9051 14.9481C36.5771 13.1241 37.3211 11.4081 38.1371 9.80008C38.9531 8.16808 39.7811 6.76408 40.6211 5.58807H29.7851V1.01608H47.2451V4.90408C46.4771 5.74408 45.6251 6.90808 44.6891 8.39608C43.7771 9.88408 42.9011 11.5761 42.0611 13.4721C41.2451 15.3441 40.5251 17.3601 39.9011 19.5201C39.3011 21.6801 38.9291 23.8401 38.7851 26.0001H33.3491Z" fill="white"/>
<path d="M67.2158 26.2161C66.8078 26.2161 66.3278 26.1921 65.7758 26.1441C65.2478 26.1201 64.6958 26.0721 64.1198 26.0001C63.5678 25.9521 63.0398 25.8921 62.5358 25.8201C62.0318 25.7241 61.5998 25.6281 61.2398 25.5321V1.52008C61.6718 1.40007 62.1518 1.30407 62.6798 1.23208C63.2078 1.13608 63.7478 1.06408 64.2998 1.01608C64.8758 0.944075 65.4278 0.896075 65.9558 0.872076C66.5078 0.848074 67.0118 0.836074 67.4678 0.836074C68.8118 0.836074 70.0838 0.944074 71.2838 1.16007C72.5078 1.37607 73.5758 1.73607 74.4878 2.24008C75.3998 2.74407 76.1198 3.41607 76.6478 4.25607C77.1998 5.07207 77.4758 6.09207 77.4758 7.31607C77.4758 8.66007 77.1278 9.81208 76.4318 10.7721C75.7598 11.7081 74.8478 12.3561 73.6958 12.7161C74.4158 12.8841 75.0758 13.1241 75.6758 13.4361C76.2758 13.7481 76.8038 14.1561 77.2598 14.6601C77.7158 15.1401 78.0638 15.7401 78.3038 16.4601C78.5678 17.1561 78.6998 17.9961 78.6998 18.9801C78.6998 21.3321 77.7638 23.1321 75.8918 24.3801C74.0198 25.6041 71.1278 26.2161 67.2158 26.2161ZM63.6878 14.0481V23.8761C64.0478 23.9241 64.5878 23.9841 65.3078 24.0561C66.0278 24.1041 66.7598 24.1281 67.5038 24.1281C68.6078 24.1281 69.6758 24.0561 70.7078 23.9121C71.7638 23.7681 72.6878 23.5041 73.4798 23.1201C74.2718 22.7361 74.9078 22.2081 75.3878 21.5361C75.8678 20.8641 76.1078 20.0001 76.1078 18.9441C76.1078 17.9841 75.9398 17.1921 75.6038 16.5681C75.2678 15.9201 74.7878 15.4161 74.1638 15.0561C73.5398 14.6721 72.7718 14.4081 71.8598 14.2641C70.9718 14.1201 69.9758 14.0481 68.8718 14.0481H63.6878ZM63.6878 11.9601H68.4398C69.3278 11.9601 70.1678 11.9001 70.9598 11.7801C71.7518 11.6361 72.4358 11.3961 73.0118 11.0601C73.6118 10.7001 74.0798 10.2321 74.4158 9.65608C74.7518 9.05608 74.9198 8.30008 74.9198 7.38808C74.9198 6.57208 74.7398 5.88808 74.3798 5.33608C74.0198 4.76007 73.5038 4.29207 72.8318 3.93207C72.1838 3.57208 71.4038 3.32008 70.4918 3.17608C69.5798 3.00808 68.5718 2.92407 67.4678 2.92407C66.5798 2.92407 65.8238 2.94807 65.1998 2.99607C64.5998 3.04407 64.0958 3.10408 63.6878 3.17608V11.9601Z" fill="white"/>
<path d="M104.652 26.0001C104.196 24.7761 103.764 23.6001 103.356 22.4721C102.948 21.3441 102.552 20.2401 102.168 19.1601H90.0356C89.6276 20.2401 89.2196 21.3441 88.8116 22.4721C88.4036 23.6001 87.9836 24.7761 87.5516 26.0001H84.9956C85.9556 23.4081 86.8556 20.9961 87.6956 18.7641C88.5356 16.5081 89.3516 14.3841 90.1436 12.3921C90.9596 10.3761 91.7636 8.44408 92.5556 6.59608C93.3476 4.74807 94.1876 2.90007 95.0756 1.05208H97.2356C98.1236 2.90007 98.9636 4.74807 99.7556 6.59608C100.548 8.44408 101.34 10.3761 102.132 12.3921C102.948 14.3841 103.776 16.5081 104.616 18.7641C105.456 20.9961 106.368 23.4081 107.352 26.0001H104.652ZM96.0836 3.86008C95.1716 5.92407 94.2836 8.02407 93.4196 10.1601C92.5796 12.2961 91.7036 14.6001 90.7916 17.0721H101.412C100.5 14.6001 99.6116 12.2961 98.7476 10.1601C97.8836 8.02407 96.9956 5.92407 96.0836 3.86008Z" fill="white"/>
<path d="M131.89 26.0001C131.434 25.1601 130.846 24.1761 130.126 23.0481C129.43 21.9201 128.662 20.7201 127.822 19.4481C126.982 18.1521 126.094 16.8321 125.158 15.4881C124.222 14.1201 123.286 12.8001 122.35 11.5281C121.438 10.2321 120.538 9.02008 119.65 7.89208C118.786 6.76408 118.006 5.79208 117.31 4.97607V26.0001H114.898V1.05208H116.842C118.066 2.42007 119.374 4.00407 120.766 5.80407C122.182 7.58008 123.562 9.40408 124.906 11.2761C126.25 13.1241 127.498 14.9361 128.65 16.7121C129.826 18.4881 130.786 20.0361 131.53 21.3561V1.05208H133.942V26.0001H131.89Z" fill="white"/>
<path d="M159.61 26.0001C158.794 24.7521 157.87 23.5161 156.838 22.2921C155.83 21.0681 154.762 19.9161 153.634 18.8361C152.506 17.7561 151.354 16.7721 150.178 15.8841C149.026 14.9961 147.91 14.2521 146.83 13.6521V26.0001H144.382V1.05208H146.83V12.6801C147.742 11.8641 148.75 10.9281 149.854 9.87208C150.982 8.79208 152.086 7.71207 153.166 6.63207C154.27 5.55208 155.302 4.52008 156.262 3.53608C157.222 2.55208 157.99 1.72408 158.566 1.05208H161.518C160.822 1.79607 159.982 2.68407 158.998 3.71608C158.014 4.72408 156.97 5.76808 155.866 6.84808C154.762 7.92808 153.658 8.99608 152.554 10.0521C151.474 11.0841 150.502 11.9961 149.638 12.7881C150.334 13.2201 151.078 13.7601 151.87 14.4081C152.686 15.0321 153.502 15.7281 154.318 16.4961C155.158 17.2401 155.974 18.0321 156.766 18.8721C157.582 19.6881 158.338 20.5161 159.034 21.3561C159.754 22.1961 160.39 23.0121 160.942 23.8041C161.518 24.5961 161.986 25.3281 162.346 26.0001H159.61Z" fill="white"/>
</svg>
