<svg width="540" height="324" viewBox="0 0 540 324" fill="none" xmlns="http://www.w3.org/2000/svg">
<g clip-path="url(#clip0_1149_196)">
<path d="M33.9686 67.9127C27.2503 67.9127 20.6828 65.9212 15.0967 62.19C9.51058 58.4588 5.15673 53.1556 2.58572 46.9509C0.0147181 40.7462 -0.657974 33.9187 0.652713 27.3318C1.9634 20.7449 5.19861 14.6945 9.94921 9.94559C14.6998 5.19672 20.7524 1.96269 27.3417 0.652477C33.931 -0.657736 40.7609 0.0147128 46.9679 2.58479C53.1748 5.15486 58.48 9.50713 62.2125 15.0912C65.9451 20.6753 67.9373 27.2404 67.9373 33.9564C67.9271 42.959 64.345 51.59 57.9768 57.9559C51.6087 64.3217 42.9746 67.9025 33.9686 67.9127ZM33.9686 1.41487C27.5302 1.41487 21.2364 3.32339 15.883 6.89909C10.5297 10.4748 6.35723 15.5571 3.89335 21.5033C1.42947 27.4494 0.784807 33.9924 2.04088 40.3049C3.29696 46.6173 6.39735 52.4157 10.95 56.9667C15.5027 61.5177 21.3031 64.6169 27.6178 65.8726C33.9325 67.1282 40.4779 66.4837 46.4263 64.0208C52.3746 61.5578 57.4587 57.3869 61.0357 52.0354C64.6127 46.684 66.5219 40.3925 66.5219 33.9564C66.5121 25.3288 63.0793 17.0574 56.9765 10.9568C50.8737 4.85625 42.5993 1.42464 33.9686 1.41487Z" fill="#0CCE8D"/>
<path d="M264.672 48.1048C261.313 48.1048 258.029 47.109 255.236 45.2434C252.443 43.3779 250.266 40.7262 248.98 37.6239C247.695 34.5215 247.359 31.1078 248.014 27.8143C248.669 24.5209 250.287 21.4957 252.662 19.1212C255.037 16.7468 258.064 15.1298 261.358 14.4747C264.653 13.8196 268.068 14.1558 271.171 15.4408C274.275 16.7259 276.928 18.902 278.794 21.6941C280.66 24.4861 281.656 27.7686 281.656 31.1266C281.651 35.6279 279.86 39.9434 276.676 43.1263C273.492 46.3093 269.175 48.0997 264.672 48.1048ZM264.672 15.5633C261.593 15.5633 258.582 16.4761 256.022 18.1862C253.462 19.8963 251.466 22.327 250.288 25.1708C249.11 28.0146 248.801 31.1439 249.402 34.1629C250.003 37.1819 251.486 39.955 253.663 42.1315C255.84 44.3081 258.614 45.7904 261.634 46.3909C264.655 46.9914 267.785 46.6832 270.63 45.5052C273.475 44.3273 275.906 42.3325 277.617 39.7731C279.328 37.2137 280.241 34.2047 280.241 31.1266C280.236 27.0004 278.594 23.0445 275.676 20.1268C272.757 17.2092 268.8 15.568 264.672 15.5633Z" fill="#2D42BA"/>
<path d="M384.27 130.873C380.491 130.873 376.797 129.753 373.655 127.654C370.513 125.555 368.064 122.572 366.618 119.082C365.171 115.592 364.793 111.752 365.53 108.047C366.268 104.341 368.087 100.938 370.759 98.2668C373.432 95.5955 376.836 93.7764 380.543 93.0394C384.249 92.3024 388.091 92.6806 391.582 94.1263C395.074 95.572 398.058 98.0201 400.158 101.161C402.257 104.302 403.378 107.995 403.378 111.773C403.372 116.837 401.357 121.692 397.775 125.273C394.193 128.853 389.336 130.868 384.27 130.873ZM384.27 94.0872C380.771 94.0872 377.351 95.1245 374.441 97.0678C371.532 99.0111 369.264 101.773 367.925 105.005C366.586 108.236 366.236 111.792 366.918 115.223C367.601 118.654 369.286 121.805 371.76 124.278C374.235 126.752 377.387 128.436 380.819 129.119C384.251 129.801 387.808 129.451 391.041 128.112C394.274 126.774 397.037 124.507 398.981 121.598C400.925 118.69 401.962 115.271 401.962 111.773C401.957 107.084 400.092 102.589 396.775 99.273C393.458 95.9575 388.961 94.0925 384.27 94.0872Z" fill="#0CCE8D"/>
<path d="M539.292 324H380.064C379.876 324 379.696 323.925 379.564 323.793C379.431 323.66 379.356 323.48 379.356 323.292C379.356 323.105 379.431 322.925 379.564 322.792C379.696 322.66 379.876 322.585 380.064 322.585H539.292C539.48 322.585 539.66 322.66 539.793 322.792C539.925 322.925 540 323.105 540 323.292C540 323.48 539.925 323.66 539.793 323.793C539.66 323.925 539.48 324 539.292 324Z" fill="#CCCCCC"/>
<path d="M453.564 108.41C463.163 108.41 470.945 100.631 470.945 91.0352C470.945 81.4392 463.163 73.6602 453.564 73.6602C443.965 73.6602 436.183 81.4392 436.183 91.0352C436.183 100.631 443.965 108.41 453.564 108.41Z" fill="#E87379"/>
<path d="M455.368 297.361L447.153 300.149L432.48 269.802L444.605 265.685L455.368 297.361Z" fill="#E87379"/>
<path d="M440.487 299.796L456.33 294.416L459.719 304.388L433.9 313.154C433.455 311.845 433.272 310.461 433.363 309.081C433.453 307.701 433.814 306.352 434.426 305.111C435.038 303.871 435.888 302.763 436.928 301.851C437.968 300.939 439.177 300.24 440.487 299.796Z" fill="#2F2E41"/>
<path d="M473.929 314.503L465.265 314.938L459.461 281.735L472.25 281.092L473.929 314.503Z" fill="#E87379"/>
<path d="M458.951 312.774L475.662 311.935L476.191 322.453L448.958 323.821C448.888 322.44 449.091 321.058 449.556 319.755C450.021 318.453 450.737 317.254 451.665 316.229C452.593 315.203 453.714 314.37 454.964 313.777C456.214 313.184 457.569 312.844 458.951 312.774Z" fill="#2F2E41"/>
<path d="M422.364 204.184C423.141 203.492 423.757 202.639 424.168 201.684C424.58 200.728 424.776 199.695 424.745 198.655C424.713 197.616 424.454 196.596 423.986 195.667C423.517 194.739 422.851 193.924 422.033 193.281L430.295 169.388L417.562 172.641L411.669 194.831C410.679 196.275 410.254 198.033 410.473 199.77C410.693 201.507 411.543 203.103 412.861 204.256C414.179 205.409 415.875 206.038 417.626 206.025C419.378 206.012 421.063 205.357 422.364 204.184Z" fill="#E87379"/>
<path d="M473.12 304.492C473.008 304.492 472.896 304.486 472.784 304.474L461.022 303.229C460.299 303.156 459.624 302.837 459.109 302.325C458.593 301.813 458.27 301.14 458.193 300.418L449.103 219.411L442.525 241.578L454.788 285.144C454.913 285.587 454.94 286.053 454.868 286.508C454.795 286.963 454.624 287.397 454.367 287.78C454.11 288.162 453.773 288.485 453.38 288.725C452.986 288.964 452.545 289.116 452.087 289.169L440.164 290.538C439.405 290.622 438.64 290.432 438.009 290.002C437.378 289.572 436.921 288.93 436.722 288.193L423.695 239.167C423.587 238.764 423.561 238.343 423.616 237.93L429.471 193.929L473.145 197.43L476.303 301.211C476.316 301.637 476.243 302.062 476.089 302.459C475.935 302.857 475.703 303.219 475.406 303.525C475.109 303.831 474.753 304.074 474.361 304.24C473.968 304.406 473.546 304.492 473.12 304.492Z" fill="#2F2E41"/>
<path d="M458.022 204.954C443.39 204.954 426.825 199.303 425.821 198.955L425.531 198.855L442.038 114.188L442.341 114.2C448.883 114.465 466.735 114.601 466.914 114.603L467.235 114.605L474.115 189.322L475.345 200.251L475.194 200.373C470.985 203.775 464.706 204.954 458.022 204.954Z" fill="#2D42BA"/>
<path d="M431.588 197.637L421.264 193.48L426.526 129.851C426.653 128.283 427.13 126.763 427.923 125.403C428.716 124.043 429.804 122.879 431.108 121.996L436.541 118.3C436.387 117.778 436.359 117.226 436.46 116.691C436.561 116.156 436.787 115.652 437.121 115.221C437.454 114.79 437.885 114.445 438.378 114.213C438.871 113.981 439.412 113.869 439.957 113.886L441.513 113.936C441.808 113.737 442.158 113.632 442.514 113.634C442.871 113.637 443.219 113.747 443.511 113.951C443.804 114.154 444.029 114.442 444.155 114.775C444.282 115.108 444.305 115.472 444.221 115.819L443.879 122.56L431.588 197.637Z" fill="#2F2E41"/>
<path d="M426.379 186.23L412.898 185.662L417.265 157.583L420.884 131.162C420.955 130.213 421.24 129.292 421.717 128.469C422.194 127.646 422.851 126.941 423.639 126.407C424.427 125.874 425.325 125.525 426.267 125.387C427.209 125.249 428.169 125.326 429.077 125.611C430.491 126.055 431.704 126.982 432.503 128.23C433.302 129.477 433.636 130.966 433.447 132.436L429.781 161.063L426.379 186.23Z" fill="#2F2E41"/>
<path d="M447.724 198.61L447.632 198.326C447.569 198.132 441.494 178.652 451.66 155.405L456.757 130.061L461.113 114.148C461.195 113.864 461.342 113.602 461.542 113.384C461.743 113.167 461.991 112.999 462.268 112.894C462.593 112.781 462.944 112.767 463.278 112.852C463.611 112.938 463.912 113.12 464.142 113.375C467.179 112.484 470.443 112.81 473.243 114.285L479.36 117.506C480.721 118.223 481.805 119.37 482.443 120.768C483.081 122.167 483.237 123.737 482.886 125.234L474.524 160.904L478.589 194.221L447.724 198.61Z" fill="#2F2E41"/>
<path d="M456.627 184.876C457.661 184.989 458.707 184.873 459.692 184.537C460.677 184.201 461.576 183.654 462.326 182.933C463.076 182.213 463.659 181.336 464.034 180.366C464.408 179.396 464.566 178.356 464.495 177.318L483.429 163.297L476.811 160.16L456.393 170.673C454.657 170.908 453.068 171.772 451.927 173.099C450.785 174.427 450.17 176.128 450.199 177.879C450.228 179.629 450.898 181.309 452.083 182.598C453.267 183.888 454.884 184.698 456.627 184.876Z" fill="#E87379"/>
<path d="M468.498 178.6L462.103 166.666L477.875 156.29L470.178 128.694C469.87 127.589 469.793 126.432 469.952 125.296C470.11 124.16 470.502 123.069 471.102 122.091C471.701 121.113 472.496 120.269 473.437 119.612C474.377 118.955 475.443 118.499 476.568 118.272C478.556 117.876 480.62 118.215 482.377 119.225C484.134 120.235 485.465 121.848 486.122 123.765L496.507 154.28C496.721 154.908 496.733 155.588 496.541 156.224C496.349 156.86 495.963 157.42 495.437 157.826L468.498 178.6Z" fill="#2F2E41"/>
<path d="M454.794 94.7205C452.71 94.9915 451.138 92.8604 450.409 90.8905C449.681 88.9206 449.125 86.6272 447.314 85.5631C444.839 84.1093 441.672 85.8578 438.842 85.3781C435.646 84.8365 433.567 81.4504 433.405 78.2138C433.242 74.9773 434.53 71.8644 435.794 68.8803L436.236 72.5888C436.177 71.3319 436.441 70.0809 437.004 68.9554C437.567 67.83 438.409 66.8677 439.451 66.1606L438.882 71.6023C439.003 70.8515 439.271 70.1321 439.671 69.4852C440.071 68.8383 440.595 68.2767 441.212 67.8327C441.83 67.3886 442.529 67.0709 443.27 66.8977C444.01 66.7244 444.778 66.6992 445.529 66.8233L445.439 70.0656C449.131 69.6268 452.855 69.1874 456.557 69.5217C460.26 69.856 463.988 71.027 466.794 73.4646C470.992 77.1107 472.525 83.1145 472.01 88.6496C471.496 94.1848 469.21 99.3846 466.828 104.408C466.228 105.671 465.399 107.098 464.009 107.259C462.761 107.403 461.618 106.36 461.23 105.164C460.931 103.938 460.942 102.656 461.263 101.436C461.615 99.5699 462.057 97.6629 461.727 95.7934C461.397 93.9239 460.052 92.0765 458.166 91.8474C456.281 91.6183 454.352 93.7724 455.258 95.4407L454.794 94.7205Z" fill="#382664"/>
<path d="M227.385 285.5L220.619 282.652L215.977 248.747H154.169L149.138 282.514L143.085 285.539C142.795 285.684 142.563 285.922 142.426 286.215C142.288 286.508 142.254 286.839 142.328 287.154C142.403 287.469 142.582 287.75 142.835 287.951C143.089 288.152 143.404 288.261 143.727 288.261H226.827C227.159 288.261 227.481 288.146 227.737 287.936C227.994 287.726 228.17 287.434 228.236 287.109C228.302 286.783 228.253 286.446 228.098 286.152C227.943 285.859 227.691 285.629 227.385 285.5Z" fill="#E6E6E6"/>
<path d="M337.223 253.258H33.6014C32.0084 253.254 30.4819 252.619 29.3567 251.492C28.2315 250.364 27.5996 248.837 27.5996 247.244V204.445H343.225V247.244C343.225 248.837 342.593 250.364 341.468 251.492C340.343 252.619 338.816 253.254 337.223 253.258Z" fill="#CCCCCC"/>
<path d="M343.542 224.673H27.3223V41.5451C27.3245 39.6232 28.0892 37.7807 29.4487 36.4218C30.8082 35.0629 32.6513 34.2985 34.5739 34.2964H336.29C338.213 34.2985 340.056 35.0629 341.416 36.4219C342.775 37.7808 343.54 39.6232 343.542 41.5451V224.673Z" fill="#3F3D56"/>
<path d="M324.655 211.382H46.2086C44.7264 211.38 43.3055 210.791 42.2574 209.743C41.2094 208.696 40.6198 207.275 40.6182 205.794V53.176C40.6198 51.6943 41.2093 50.2738 42.2574 49.2261C43.3054 48.1784 44.7264 47.5891 46.2086 47.5874H324.655C326.137 47.5891 327.558 48.1784 328.606 49.2261C329.654 50.2738 330.244 51.6943 330.246 53.176V205.794C330.244 207.275 329.654 208.696 328.606 209.743C327.558 210.791 326.137 211.38 324.655 211.382Z" fill="white"/>
<path d="M322.035 288.615H52.4089C52.2212 288.615 52.0412 288.541 51.9084 288.408C51.7757 288.275 51.7012 288.095 51.7012 287.908C51.7012 287.72 51.7757 287.54 51.9084 287.407C52.0412 287.275 52.2212 287.2 52.4089 287.2H322.035C322.223 287.2 322.403 287.275 322.535 287.407C322.668 287.54 322.742 287.72 322.742 287.908C322.742 288.095 322.668 288.275 322.535 288.408C322.403 288.541 322.223 288.615 322.035 288.615Z" fill="#CCCCCC"/>
<path d="M298.497 192.419H72.3678C72.1801 192.419 72.0001 192.345 71.8674 192.212C71.7347 192.079 71.6602 191.899 71.6602 191.712V83.3676C71.6602 83.18 71.7347 83 71.8674 82.8674C72.0001 82.7347 72.1801 82.6602 72.3678 82.6602C72.5555 82.6602 72.7355 82.7347 72.8682 82.8674C73.0009 83 73.0755 83.18 73.0755 83.3676V191.004H298.497C298.684 191.004 298.864 191.079 298.997 191.212C299.13 191.344 299.204 191.524 299.204 191.712C299.204 191.899 299.13 192.079 298.997 192.212C298.864 192.345 298.684 192.419 298.497 192.419Z" fill="#3F3D56"/>
<path d="M120.682 184.638H100.114C99.5575 184.637 99.0235 184.416 98.6297 184.022C98.2359 183.628 98.0143 183.095 98.0137 182.538V154.196C98.0143 153.639 98.2359 153.106 98.6297 152.712C99.0235 152.318 99.5575 152.097 100.114 152.096H120.682C121.239 152.097 121.773 152.318 122.166 152.712C122.56 153.106 122.782 153.639 122.782 154.196V182.538C122.782 183.095 122.56 183.628 122.166 184.022C121.773 184.416 121.239 184.637 120.682 184.638Z" fill="#2D42BA"/>
<path d="M158.189 184.637H137.621C137.064 184.637 136.53 184.415 136.137 184.022C135.743 183.628 135.521 183.094 135.521 182.538V127.314C135.521 126.757 135.743 126.223 136.137 125.83C136.53 125.436 137.064 125.214 137.621 125.214H158.189C158.745 125.214 159.279 125.436 159.673 125.83C160.067 126.223 160.289 126.757 160.289 127.314V182.538C160.289 183.094 160.067 183.628 159.673 184.022C159.279 184.415 158.745 184.637 158.189 184.637Z" fill="#2D42BA"/>
<path d="M195.695 184.638H175.128C174.571 184.637 174.037 184.416 173.643 184.022C173.25 183.628 173.028 183.095 173.027 182.538V154.196C173.028 153.639 173.25 153.106 173.643 152.712C174.037 152.318 174.571 152.097 175.128 152.096H195.695C196.252 152.097 196.786 152.318 197.18 152.712C197.574 153.106 197.795 153.639 197.796 154.196V182.538C197.795 183.095 197.574 183.628 197.18 184.022C196.786 184.416 196.252 184.637 195.695 184.638Z" fill="#2D42BA"/>
<path d="M233.203 184.637H212.636C212.092 184.649 211.565 184.445 211.171 184.069C210.777 183.693 210.549 183.177 210.535 182.633V116.607C210.549 116.063 210.777 115.547 211.171 115.171C211.565 114.795 212.092 114.591 212.636 114.603H233.203C233.747 114.591 234.274 114.795 234.668 115.171C235.062 115.547 235.29 116.063 235.304 116.607V182.633C235.29 183.177 235.062 183.693 234.668 184.069C234.274 184.445 233.747 184.649 233.203 184.637Z" fill="#2D42BA"/>
<path d="M270.71 184.637H250.143C249.586 184.637 249.052 184.415 248.658 184.022C248.264 183.628 248.043 183.094 248.042 182.538V97.6018C248.043 97.045 248.264 96.5113 248.658 96.1176C249.052 95.724 249.586 95.5026 250.143 95.502H270.71C271.267 95.5026 271.801 95.724 272.195 96.1176C272.589 96.5113 272.81 97.045 272.811 97.6018V182.538C272.81 183.094 272.589 183.628 272.195 184.022C271.801 184.415 271.267 184.637 270.71 184.637Z" fill="#2D42BA"/>
<path d="M110.398 143.607C112.743 143.607 114.645 141.706 114.645 139.362C114.645 137.018 112.743 135.118 110.398 135.118C108.053 135.118 106.152 137.018 106.152 139.362C106.152 141.706 108.053 143.607 110.398 143.607Z" fill="#0CCE8D"/>
<path d="M147.905 116.017C150.25 116.017 152.151 114.117 152.151 111.773C152.151 109.429 150.25 107.528 147.905 107.528C145.56 107.528 143.659 109.429 143.659 111.773C143.659 114.117 145.56 116.017 147.905 116.017Z" fill="#0CCE8D"/>
<path d="M185.412 143.607C187.757 143.607 189.658 141.706 189.658 139.362C189.658 137.018 187.757 135.118 185.412 135.118C183.067 135.118 181.166 137.018 181.166 139.362C181.166 141.706 183.067 143.607 185.412 143.607Z" fill="#0CCE8D"/>
<path d="M222.919 102.576C225.264 102.576 227.165 100.676 227.165 98.3319C227.165 95.9877 225.264 94.0874 222.919 94.0874C220.574 94.0874 218.673 95.9877 218.673 98.3319C218.673 100.676 220.574 102.576 222.919 102.576Z" fill="#0CCE8D"/>
<path d="M260.426 87.013C262.771 87.013 264.672 85.1127 264.672 82.7685C264.672 80.4243 262.771 78.5239 260.426 78.5239C258.081 78.5239 256.18 80.4243 256.18 82.7685C256.18 85.1127 258.081 87.013 260.426 87.013Z" fill="#0CCE8D"/>
<path d="M185.501 140.313L147.905 112.163L110.823 139.928L109.974 138.796L147.905 110.395L185.323 138.411L222.505 97.736L222.655 97.6752L260.162 82.5688L260.691 83.8811L223.333 98.9273L185.501 140.313Z" fill="#0CCE8D"/>
</g>
<defs>
<clipPath id="clip0_1149_196">
<rect width="540" height="324" fill="white"/>
</clipPath>
</defs>
</svg>
